<?xml version="1.0" encoding="UTF-8" standalone="no"?>
<svg
   version="1.1"
   width="100"
   height="100"
   viewBox="0 0 200 200"
   id="svg36"
   xmlns="http://www.w3.org/2000/svg"
   xmlns:svg="http://www.w3.org/2000/svg">
  <defs
     id="defs40" />
  <g
     transform="matrix(2.570231, 0, 0, 2.570231, -5.946335, -7.163385)"
     id="g34">
    <svg
       viewBox="0 0 395.52 147.41093720121353"
       height="147.41093720121353"
       width="395.52"
       transform="matrix(1, 0, 0, 1, 1.4210854715202004e-14, 1.4210854715202004e-14)"
       style=""
       version="1.1"
       id="svg32">
      <g
         id="g30">
        <svg
           viewBox="0 0 395.52 147.41093720121353"
           height="147.41093720121353"
           width="395.52"
           version="1.1"
           id="svg28">
          <g
             transform="matrix(1, 0, 0, 1, 2.313557, 2.787057)"
             id="g24">
            <svg
               viewBox="0 0 77.81359869311552 77.81359869311552"
               height="77.81359869311552"
               width="77.81359869311552"
               transform="matrix(1, 0, 0, 1, 92.43736165645024, 70.14091138329815)"
               version="1.1"
               id="svg22">
              <g
                 id="g4">
                <svg
                   version="1.1"
                   id="svg2" />
              </g>
              <g
                 id="icon-0">
                <svg
                   viewBox="0 0 77.81359869311552 77.81359869311552"
                   height="77.81359869311552"
                   width="77.81359869311552"
                   version="1.1"
                   id="svg19">
                  <g
                     id="g8">
                    <path
                       d="M23.344 77.814c-12.893 0-23.344-10.451-23.344-23.344v-31.126c0-12.893 10.451-23.344 23.344-23.344h31.126c12.893 0 23.344 10.451 23.344 23.344v31.126c0 12.893-10.451 23.344-23.344 23.344z"
                       fill="#8dbdff"
                       fill-rule="nonzero"
                       stroke="none"
                       stroke-width="1"
                       stroke-linecap="butt"
                       stroke-linejoin="miter"
                       stroke-miterlimit="10"
                       stroke-dasharray=""
                       stroke-dashoffset="0"
                       font-family="none"
                       font-weight="none"
                       font-size="none"
                       text-anchor="none"
                       style="mix-blend-mode: normal"
                       data-fill-palette-color="accent"
                       id="path6" />
                  </g>
                  <g
                     transform="matrix(1,0,0,1,15.562719738623105,15.562719738623105)"
                     id="g17">
                    <svg
                       viewBox="0 0 46.68815921586931 46.68815921586931"
                       height="46.68815921586931"
                       width="46.68815921586931"
                       version="1.1"
                       id="svg15">
                      <g
                         id="g13">
                        <svg
                           version="1.1"
                           x="0"
                           y="0"
                           viewBox="0 0 100 100"
                           enable-background="new 0 0 100 100"
                           height="46.68815921586931"
                           width="46.68815921586931"
                           class="icon-s-0"
                           data-fill-palette-color="quaternary"
                           id="s-0">
                          <path
                             d="M83.559 38.295c-0.379-0.762-1.155-1.25-2.011-1.25H54.455L74.056 8.561c0.703-1.022 0.444-2.415-0.575-3.12-0.495-0.336-1.077-0.445-1.629-0.355C71.716 5.028 71.572 5 71.416 5h-13.13c-0.028 0-0.053 0.009-0.078 0.014-0.073 0.005-0.138 0.024-0.206 0.042-0.073 0.019-0.145 0.038-0.213 0.071-0.06 0.028-0.109 0.066-0.164 0.109-0.062 0.047-0.12 0.09-0.17 0.146-0.043 0.047-0.076 0.104-0.114 0.166-0.037 0.066-0.078 0.132-0.102 0.204-0.009 0.023-0.028 0.042-0.035 0.066l-8.886 31.998c-0.026 0.104-0.021 0.204-0.021 0.303-0.409 0.672-0.455 1.511-0.085 2.211 0.388 0.734 1.15 1.198 1.984 1.198h13.891l-7.32 26.368-0.888 1.155-11.767-0.005h-0.002c-0.729 0-1.416 0.355-1.834 0.957-0.419 0.597-0.519 1.363-0.268 2.05l7.838 21.473c0.258 0.71 0.859 1.24 1.598 1.416C51.608 94.981 51.781 95 51.949 95c0.572 0 1.131-0.223 1.552-0.625l22.403-21.468c0.663-0.635 0.871-1.61 0.53-2.457-0.344-0.853-1.165-1.402-2.081-1.402l0 0-12.826 0.005 21.797-28.399C83.845 39.977 83.935 39.063 83.559 38.295zM59.136 7.24h10.386L52.108 32.557 59.136 7.24zM68.776 73.532L52.879 88.765l-5.565-15.232 11.917 0.005L68.776 73.532zM60.412 63.144l6.001-21.614h10.592L60.412 63.144zM36.793 64.413l-8.906 0.005L42.31 45.625c0.26-0.346 0.305-0.8 0.116-1.179-0.187-0.388-0.578-0.625-1.004-0.625H23.377l12.957-18.835c0.353-0.511 0.223-1.208-0.287-1.563-0.021-0.014-0.045-0.014-0.068-0.028-0.095-0.516-0.53-0.918-1.077-0.918h-8.45c-0.031 0-0.054 0.014-0.08 0.014-0.069 0.004-0.133 0.023-0.197 0.042-0.078 0.019-0.154 0.038-0.22 0.071-0.059 0.029-0.109 0.071-0.159 0.109-0.064 0.047-0.125 0.09-0.175 0.147-0.043 0.052-0.078 0.109-0.111 0.166-0.043 0.066-0.081 0.133-0.107 0.208-0.007 0.019-0.026 0.038-0.033 0.062l-5.715 20.592c-0.137 0.507 0.1 1.004 0.533 1.255 0.019 0.109 0.017 0.218 0.069 0.317 0.192 0.369 0.575 0.601 0.99 0.601h8.615l-5.097 18.357-7.431-0.005c-0.367 0-0.708 0.175-0.918 0.474-0.208 0.303-0.261 0.687-0.135 1.027l5.045 13.82c0.13 0.355 0.431 0.621 0.797 0.701 0.083 0.023 0.168 0.033 0.256 0.033 0.284 0 0.563-0.109 0.772-0.313L37.567 66.34c0.329-0.317 0.436-0.8 0.263-1.222C37.662 64.692 37.25 64.413 36.793 64.413zM27.302 24.716h6.496l-10.89 15.829L27.302 24.716zM32.188 46.061h6.96L28.24 60.274 32.188 46.061zM22.842 77.354l-3.908-10.701 8.127 0.005h6.941L22.842 77.354zM83.559 38.295c-0.379-0.762-1.155-1.25-2.011-1.25H54.455L74.056 8.561c0.703-1.022 0.444-2.415-0.575-3.12-0.495-0.336-1.077-0.445-1.629-0.355C71.716 5.028 71.572 5 71.416 5h-13.13c-0.028 0-0.053 0.009-0.078 0.014-0.073 0.005-0.138 0.024-0.206 0.042-0.073 0.019-0.145 0.038-0.213 0.071-0.06 0.028-0.109 0.066-0.164 0.109-0.062 0.047-0.12 0.09-0.17 0.146-0.043 0.047-0.076 0.104-0.114 0.166-0.037 0.066-0.078 0.132-0.102 0.204-0.009 0.023-0.028 0.042-0.035 0.066l-8.886 31.998c-0.026 0.104-0.021 0.204-0.021 0.303-0.409 0.672-0.455 1.511-0.085 2.211 0.388 0.734 1.15 1.198 1.984 1.198h13.891l-7.32 26.368-0.888 1.155-11.767-0.005h-0.002c-0.729 0-1.416 0.355-1.834 0.957-0.419 0.597-0.519 1.363-0.268 2.05l7.838 21.473c0.258 0.71 0.859 1.24 1.598 1.416C51.608 94.981 51.781 95 51.949 95c0.572 0 1.131-0.223 1.552-0.625l22.403-21.468c0.663-0.635 0.871-1.61 0.53-2.457-0.344-0.853-1.165-1.402-2.081-1.402l0 0-12.826 0.005 21.797-28.399C83.845 39.977 83.935 39.063 83.559 38.295zM59.136 7.24h10.386L52.108 32.557 59.136 7.24zM68.776 73.532L52.879 88.765l-5.565-15.232 11.917 0.005L68.776 73.532zM60.412 63.144l6.001-21.614h10.592L60.412 63.144zM36.793 64.413l-8.906 0.005L42.31 45.625c0.26-0.346 0.305-0.8 0.116-1.179-0.187-0.388-0.578-0.625-1.004-0.625H23.377l12.957-18.835c0.353-0.511 0.223-1.208-0.287-1.563-0.021-0.014-0.045-0.014-0.068-0.028-0.095-0.516-0.53-0.918-1.077-0.918h-8.45c-0.031 0-0.054 0.014-0.08 0.014-0.069 0.004-0.133 0.023-0.197 0.042-0.078 0.019-0.154 0.038-0.22 0.071-0.059 0.029-0.109 0.071-0.159 0.109-0.064 0.047-0.125 0.09-0.175 0.147-0.043 0.052-0.078 0.109-0.111 0.166-0.043 0.066-0.081 0.133-0.107 0.208-0.007 0.019-0.026 0.038-0.033 0.062l-5.715 20.592c-0.137 0.507 0.1 1.004 0.533 1.255 0.019 0.109 0.017 0.218 0.069 0.317 0.192 0.369 0.575 0.601 0.99 0.601h8.615l-5.097 18.357-7.431-0.005c-0.367 0-0.708 0.175-0.918 0.474-0.208 0.303-0.261 0.687-0.135 1.027l5.045 13.82c0.13 0.355 0.431 0.621 0.797 0.701 0.083 0.023 0.168 0.033 0.256 0.033 0.284 0 0.563-0.109 0.772-0.313L37.567 66.34c0.329-0.317 0.436-0.8 0.263-1.222C37.662 64.692 37.25 64.413 36.793 64.413zM27.302 24.716h6.496l-10.89 15.829L27.302 24.716zM32.188 46.061h6.96L28.24 60.274 32.188 46.061zM22.842 77.354l-3.908-10.701 8.127 0.005h6.941L22.842 77.354z"
                             fill="#0718c4"
                             data-fill-palette-color="quaternary"
                             id="path10" />
                        </svg>
                      </g>
                    </svg>
                  </g>
                </svg>
              </g>
            </svg>
          </g>
          <g
             id="g26" />
        </svg>
      </g>
    </svg>
  </g>
</svg>
