<svg xmlns="http://www.w3.org/2000/svg" viewBox="0 0 16 16">
  <path fill="#8dbdff" d="M4.8 16A4.8 4.8 0 0 1 0 11.2V4.8A4.8 4.8 0 0 1 4.8 0h6.4A4.8 4.8 0 0 1 16 4.8v6.4a4.8 4.8 0 0 1-4.8 4.8Z" data-fill-palette-color="accent" font-family="none" font-size="none" font-weight="none" style="mix-blend-mode:normal" text-anchor="none"/>
  <path fill="#0718c4" d="M13.47 5.93a.33.33 0 0 0-.3-.19H9.16l2.9-4.21a.33.33 0 0 0-.09-.46.33.33 0 0 0-.24-.06.16.16 0 0 0-.06-.01H9.68l-.03.02-.02.01-.03.03-.01.02-.02.03v.01L8.25 5.86v.04a.33.33 0 0 0 .28.5h2.05L9.5 10.3l-.13.18H7.63a.33.33 0 0 0-.31.44l1.16 3.18a.33.33 0 0 0 .54.13l3.31-3.18a.33.33 0 0 0-.23-.57h-1.9l3.23-4.2c.08-.1.1-.24.04-.35zm-3.62-4.6h1.54L8.8 5.08Zm1.43 9.81L8.93 13.4l-.83-2.26h1.77zM10.04 9.6l.89-3.2h1.57zm-3.5.2h-1.3L7.36 7a.17.17 0 0 0-.13-.27H4.56l1.92-2.78a.17.17 0 0 0-.04-.23h-.02a.16.16 0 0 0-.15-.14h-1.3l-.03.02-.02.01-.03.02-.01.03-.02.03L4 6.76c-.02.08.01.15.08.2V7c.04.05.1.09.15.09h1.28L4.76 9.8h-1.1a.17.17 0 0 0-.16.22l.75 2.05c.02.05.06.1.11.1h.04c.04 0 .09 0 .12-.04l2.13-2.04a.16.16 0 0 0 .04-.18.16.16 0 0 0-.15-.1Zm-1.4-5.88h.96L4.5 6.26Zm.72 3.16H6.9l-1.61 2.1ZM4.48 11.7l-.58-1.59h2.23Zm8.99-5.78a.33.33 0 0 0-.3-.19H9.16l2.9-4.21a.33.33 0 0 0-.09-.46.33.33 0 0 0-.24-.06.16.16 0 0 0-.06-.01H9.68l-.03.02-.02.01-.03.03-.01.02-.02.03v.01L8.25 5.86v.04a.33.33 0 0 0 .28.5h2.05L9.5 10.3l-.13.18H7.63a.33.33 0 0 0-.31.44l1.16 3.18a.33.33 0 0 0 .54.13l3.31-3.18a.33.33 0 0 0-.23-.57h-1.9l3.23-4.2c.08-.1.1-.24.04-.35zm-3.62-4.6h1.54L8.8 5.08Zm1.43 9.81L8.93 13.4l-.83-2.26h1.77zM10.04 9.6l.89-3.2h1.57zm-3.5.2h-1.3L7.36 7a.17.17 0 0 0-.13-.27H4.56l1.92-2.78a.17.17 0 0 0-.04-.23h-.02a.16.16 0 0 0-.15-.14h-1.3l-.03.02-.02.01-.03.02-.01.03-.02.03L4 6.76c-.02.08.01.15.08.2V7c.04.05.1.09.15.09h1.28L4.76 9.8h-1.1a.17.17 0 0 0-.16.22l.75 2.05c.02.05.06.1.11.1h.04c.04 0 .09 0 .12-.04l2.13-2.04a.16.16 0 0 0 .04-.18.16.16 0 0 0-.15-.1Zm-1.4-5.88h.96L4.5 6.26Zm.72 3.16H6.9l-1.61 2.1ZM4.48 11.7l-.58-1.59h2.23z" data-fill-palette-color="quaternary"/>
</svg>
